<?xml version="1.0" standalone="no"?>
<!DOCTYPE svg PUBLIC "-//W3C//DTD SVG 20010904//EN"
 "http://www.w3.org/TR/2001/REC-SVG-20010904/DTD/svg10.dtd">
<svg version="1.0" xmlns="http://www.w3.org/2000/svg"
 width="58.000000pt" height="66.000000pt" viewBox="0 0 58.000000 66.000000"
 preserveAspectRatio="xMidYMid meet">

<g transform="translate(0.000000,66.000000) scale(0.100000,-0.100000)"
fill="#9f6b08" stroke="none">
<path d="M212 513 c-120 -59 -136 -255 -28 -338 100 -76 232 -23 267 105 25
95 -11 187 -91 228 -52 26 -102 28 -148 5z m88 -68 c-25 -26 -40 -32 -40 -14
0 5 4 8 9 5 4 -3 16 3 26 14 10 11 20 20 23 20 3 0 -5 -11 -18 -25z m105 -25
c10 -11 16 -20 13 -20 -3 0 -13 9 -23 20 -10 11 -16 20 -13 20 3 0 13 -9 23
-20z m-146 -39 c-6 -2 -18 4 -27 13 -15 15 -15 15 10 4 15 -7 23 -15 17 -17z
m65 -60 c17 -18 17 -20 1 -45 -10 -14 -13 -26 -9 -26 5 0 9 -13 9 -29 0 -28
-1 -29 -20 -13 -11 9 -22 18 -25 20 -2 2 2 7 10 12 9 6 10 10 3 10 -6 0 -9 9
-6 20 7 25 -22 38 -48 21 -11 -6 -19 -7 -19 -2 0 5 7 11 15 15 8 3 15 15 15
27 0 18 4 20 28 14 15 -3 35 -14 46 -24z m-49 -43 c-13 -56 -28 -73 -38 -45
-3 9 -7 9 -20 -2 -28 -23 -19 -5 14 28 32 32 49 40 44 19z m99 -72 c-3 -8 -13
-17 -22 -21 -13 -5 -13 -2 3 15 21 24 26 25 19 6z"/>
</g>
</svg>
