<?xml version="1.0" standalone="no"?>
<!DOCTYPE svg PUBLIC "-//W3C//DTD SVG 20010904//EN"
 "http://www.w3.org/TR/2001/REC-SVG-20010904/DTD/svg10.dtd">
<svg version="1.0" xmlns="http://www.w3.org/2000/svg"
 width="91.000000pt" height="104.000000pt" viewBox="0 0 91.000000 104.000000"
 preserveAspectRatio="xMidYMid meet">

<g transform="translate(0.000000,104.000000) scale(0.100000,-0.100000)"
fill="#000000" stroke="none">
<path d="M369 825 c-105 -34 -188 -148 -197 -274 -15 -217 158 -375 353 -321
63 18 132 81 166 155 52 110 36 258 -39 353 -64 81 -186 118 -283 87z m235
-123 c17 -24 42 -50 56 -58 24 -13 24 -13 3 -14 -22 0 -45 24 -75 79 -14 25
-24 31 -50 31 -26 0 -42 -10 -82 -52 -27 -29 -46 -48 -43 -41 4 6 -2 29 -14
50 l-22 38 26 -30 26 -30 38 38 c31 31 44 37 72 35 28 -2 41 -12 65 -46z
m-252 -58 c22 -19 45 -34 51 -31 7 2 23 7 37 11 24 7 24 6 6 -8 -34 -27 -71
-20 -100 18 -14 19 -36 37 -48 39 -18 3 -19 5 -4 6 10 0 36 -15 58 -35z m88
-99 c7 -8 20 -15 29 -15 27 0 61 -30 61 -54 0 -13 -9 -31 -20 -41 -31 -28 -26
-46 10 -38 55 11 93 -53 54 -91 -8 -9 -24 -16 -33 -16 -23 0 -73 39 -66 51 4
5 0 6 -7 4 -8 -3 -24 9 -38 27 l-23 33 25 -23 c19 -17 28 -20 33 -11 10 15
-23 41 -45 36 -10 -2 -14 -12 -12 -32 8 -68 -29 -105 -69 -69 -32 29 -22 79
18 95 19 7 24 15 20 30 -4 15 -1 19 11 15 9 -3 28 3 42 14 l25 20 -32 0 c-20
0 -41 -8 -54 -21 -11 -11 -24 -18 -27 -14 -4 4 8 20 27 35 19 16 30 33 26 40
-7 11 11 40 25 40 4 0 13 -7 20 -15z"/>
<path d="M437 442 c-17 -18 -17 -20 -1 -26 22 -8 26 -3 22 24 -3 22 -3 22 -21
2z"/>
<path d="M347 376 c-22 -22 -22 -39 2 -60 17 -16 20 -16 35 -1 9 9 16 24 16
33 0 14 -2 15 -10 2 -9 -15 -11 -14 -22 29 -3 11 -7 10 -21 -3z"/>
<path d="M510 375 c-15 -18 -6 -61 15 -69 40 -15 69 32 39 65 -21 23 -37 24
-54 4z"/>
</g>
</svg>
